<?xml version="1.0" encoding="UTF-8" standalone="no"?>
<!DOCTYPE svg PUBLIC "-//W3C//DTD SVG 1.1//EN"
 "http://www.w3.org/Graphics/SVG/1.1/DTD/svg11.dtd">
<!-- Generated by graphviz version 9.0.0 (0)
 -->
<!-- Title: flake_dependencies Pages: 1 -->
<svg width="853pt" height="206pt"
 viewBox="0.00 0.00 853.48 206.00" xmlns="http://www.w3.org/2000/svg" xmlns:xlink="http://www.w3.org/1999/xlink">
<g id="graph0" class="graph" transform="scale(1 1) rotate(0) translate(4 202)">
<title>flake_dependencies</title>
<polygon fill="white" stroke="none" points="-4,4 -4,-202 849.48,-202 849.48,4 -4,4"/>
<!-- gitignore -->
<g id="node1" class="node">
<title>gitignore</title>
<ellipse fill="none" stroke="black" cx="612.19" cy="-172" rx="57" ry="18"/>
<text text-anchor="middle" x="612.19" y="-167.32" font-family="Times,serif" font-size="14.00">gitignore</text>
</g>
<!-- nixpkgs_2 -->
<g id="node2" class="node">
<title>nixpkgs_2</title>
<ellipse fill="none" stroke="black" cx="784.28" cy="-149" rx="61.2" ry="18"/>
<text text-anchor="middle" x="784.28" y="-144.32" font-family="Times,serif" font-size="14.00">nixpkgs_2</text>
</g>
<!-- gitignore&#45;&gt;nixpkgs_2 -->
<g id="edge1" class="edge">
<title>gitignore&#45;&gt;nixpkgs_2</title>
<path fill="none" stroke="black" d="M665.14,-164.97C681.49,-162.76 699.77,-160.29 716.98,-157.97"/>
<polygon fill="black" stroke="black" points="717.16,-161.47 726.6,-156.66 716.22,-154.54 717.16,-161.47"/>
</g>
<!-- nix&#45;dev&#45;toolkit -->
<g id="node3" class="node">
<title>nix&#45;dev&#45;toolkit</title>
<ellipse fill="none" stroke="black" cx="181.73" cy="-99" rx="82.25" ry="18"/>
<text text-anchor="middle" x="181.73" y="-94.33" font-family="Times,serif" font-size="14.00">nix&#45;dev&#45;toolkit</text>
</g>
<!-- nixpkgs -->
<g id="node4" class="node">
<title>nixpkgs</title>
<ellipse fill="none" stroke="black" cx="400.64" cy="-180" rx="50.16" ry="18"/>
<text text-anchor="middle" x="400.64" y="-175.32" font-family="Times,serif" font-size="14.00">nixpkgs</text>
</g>
<!-- nix&#45;dev&#45;toolkit&#45;&gt;nixpkgs -->
<g id="edge2" class="edge">
<title>nix&#45;dev&#45;toolkit&#45;&gt;nixpkgs</title>
<path fill="none" stroke="black" d="M215.47,-115.87C238.65,-127.37 270.7,-142.37 299.98,-153 315.03,-158.46 331.71,-163.4 347.05,-167.51"/>
<polygon fill="black" stroke="black" points="345.92,-170.83 356.48,-169.98 347.69,-164.06 345.92,-170.83"/>
</g>
<!-- pre&#45;commit&#45;hooks -->
<g id="node5" class="node">
<title>pre&#45;commit&#45;hooks</title>
<ellipse fill="none" stroke="black" cx="400.64" cy="-126" rx="100.66" ry="18"/>
<text text-anchor="middle" x="400.64" y="-121.33" font-family="Times,serif" font-size="14.00">pre&#45;commit&#45;hooks</text>
</g>
<!-- nix&#45;dev&#45;toolkit&#45;&gt;pre&#45;commit&#45;hooks -->
<g id="edge3" class="edge">
<title>nix&#45;dev&#45;toolkit&#45;&gt;pre&#45;commit&#45;hooks</title>
<path fill="none" stroke="black" d="M254.06,-107.88C270.57,-109.93 288.38,-112.15 305.7,-114.31"/>
<polygon fill="black" stroke="black" points="305.13,-117.76 315.48,-115.52 305.99,-110.82 305.13,-117.76"/>
</g>
<!-- systems -->
<g id="node6" class="node">
<title>systems</title>
<ellipse fill="none" stroke="black" cx="400.64" cy="-72" rx="52.26" ry="18"/>
<text text-anchor="middle" x="400.64" y="-67.33" font-family="Times,serif" font-size="14.00">systems</text>
</g>
<!-- nix&#45;dev&#45;toolkit&#45;&gt;systems -->
<g id="edge4" class="edge">
<title>nix&#45;dev&#45;toolkit&#45;&gt;systems</title>
<path fill="none" stroke="black" d="M254.06,-90.12C281.7,-86.68 313,-82.78 339.48,-79.49"/>
<polygon fill="black" stroke="black" points="339.9,-82.96 349.39,-78.26 339.03,-76.02 339.9,-82.96"/>
</g>
<!-- treefmt&#45;nix -->
<g id="node7" class="node">
<title>treefmt&#45;nix</title>
<ellipse fill="none" stroke="black" cx="400.64" cy="-18" rx="67.52" ry="18"/>
<text text-anchor="middle" x="400.64" y="-13.32" font-family="Times,serif" font-size="14.00">treefmt&#45;nix</text>
</g>
<!-- nix&#45;dev&#45;toolkit&#45;&gt;treefmt&#45;nix -->
<g id="edge5" class="edge">
<title>nix&#45;dev&#45;toolkit&#45;&gt;treefmt&#45;nix</title>
<path fill="none" stroke="black" d="M234.05,-84.75C244.22,-81.15 254.63,-76.89 263.98,-72 281.7,-62.73 282.01,-53.77 299.98,-45 310.84,-39.7 322.88,-35.32 334.73,-31.75"/>
<polygon fill="black" stroke="black" points="335.41,-35.19 344.07,-29.1 333.5,-28.46 335.41,-35.19"/>
</g>
<!-- pre&#45;commit&#45;hooks&#45;&gt;gitignore -->
<g id="edge7" class="edge">
<title>pre&#45;commit&#45;hooks&#45;&gt;gitignore</title>
<path fill="none" stroke="black" d="M465.94,-140.11C493.96,-146.27 526.54,-153.42 553.74,-159.39"/>
<polygon fill="black" stroke="black" points="552.65,-162.73 563.17,-161.46 554.16,-155.9 552.65,-162.73"/>
</g>
<!-- pre&#45;commit&#45;hooks&#45;&gt;nixpkgs_2 -->
<g id="edge8" class="edge">
<title>pre&#45;commit&#45;hooks&#45;&gt;nixpkgs_2</title>
<path fill="none" stroke="black" d="M496.47,-131.71C563.35,-135.75 651.51,-141.06 712.34,-144.72"/>
<polygon fill="black" stroke="black" points="712.05,-148.21 722.24,-145.32 712.47,-141.23 712.05,-148.21"/>
</g>
<!-- flake&#45;compat -->
<g id="node8" class="node">
<title>flake&#45;compat</title>
<ellipse fill="none" stroke="black" cx="612.19" cy="-80" rx="74.88" ry="18"/>
<text text-anchor="middle" x="612.19" y="-75.33" font-family="Times,serif" font-size="14.00">flake&#45;compat</text>
</g>
<!-- pre&#45;commit&#45;hooks&#45;&gt;flake&#45;compat -->
<g id="edge6" class="edge">
<title>pre&#45;commit&#45;hooks&#45;&gt;flake&#45;compat</title>
<path fill="none" stroke="black" d="M465.94,-111.89C490.98,-106.39 519.68,-100.09 544.91,-94.55"/>
<polygon fill="black" stroke="black" points="545.37,-98.03 554.39,-92.47 543.87,-91.2 545.37,-98.03"/>
</g>
<!-- nixpkgs_3 -->
<g id="node11" class="node">
<title>nixpkgs_3</title>
<ellipse fill="none" stroke="black" cx="612.19" cy="-18" rx="61.2" ry="18"/>
<text text-anchor="middle" x="612.19" y="-13.32" font-family="Times,serif" font-size="14.00">nixpkgs_3</text>
</g>
<!-- treefmt&#45;nix&#45;&gt;nixpkgs_3 -->
<g id="edge11" class="edge">
<title>treefmt&#45;nix&#45;&gt;nixpkgs_3</title>
<path fill="none" stroke="black" d="M468.52,-18C491.06,-18 516.31,-18 539.23,-18"/>
<polygon fill="black" stroke="black" points="539.11,-21.5 549.11,-18 539.11,-14.5 539.11,-21.5"/>
</g>
<!-- root -->
<g id="node9" class="node">
<title>root</title>
<ellipse fill="none" stroke="black" cx="31.74" cy="-72" rx="31.74" ry="18"/>
<text text-anchor="middle" x="31.74" y="-67.33" font-family="Times,serif" font-size="14.00">root</text>
</g>
<!-- root&#45;&gt;nix&#45;dev&#45;toolkit -->
<g id="edge9" class="edge">
<title>root&#45;&gt;nix&#45;dev&#45;toolkit</title>
<path fill="none" stroke="black" d="M62.33,-77.4C75.03,-79.71 90.49,-82.54 105.99,-85.36"/>
<polygon fill="black" stroke="black" points="105.29,-88.79 115.76,-87.15 106.55,-81.91 105.29,-88.79"/>
</g>
<!-- nixpkgs_4 -->
<g id="node10" class="node">
<title>nixpkgs_4</title>
<ellipse fill="none" stroke="black" cx="181.73" cy="-45" rx="61.2" ry="18"/>
<text text-anchor="middle" x="181.73" y="-40.33" font-family="Times,serif" font-size="14.00">nixpkgs_4</text>
</g>
<!-- root&#45;&gt;nixpkgs_4 -->
<g id="edge10" class="edge">
<title>root&#45;&gt;nixpkgs_4</title>
<path fill="none" stroke="black" d="M62.33,-66.6C78.27,-63.69 98.57,-59.99 117.83,-56.48"/>
<polygon fill="black" stroke="black" points="118.32,-59.94 127.53,-54.71 117.06,-53.06 118.32,-59.94"/>
</g>
</g>
</svg>
